<svg width="17" height="24" viewBox="0 0 17 24" fill="none" xmlns="http://www.w3.org/2000/svg">
<path d="M2.9075 8.33301H14.139C14.3537 8.33301 14.4292 8.33348 14.4884 8.3386C15.2146 8.4015 15.7905 8.97737 15.8534 9.70358C15.8585 9.76274 15.859 9.8383 15.859 10.0532V10.0652V10.0773V10.0893V10.1013V10.1134V10.1254V10.1374V10.1494V10.1614V10.1734V10.1854V10.1973V10.2093V10.2213V10.2332V10.2452V10.2571V10.2691V10.281V10.2929V10.3048V10.3168V10.3287V10.3406V10.3525V10.3644V10.3762V10.3881V10.4V10.4119V10.4237V10.4356V10.4474V10.4593V10.4711V10.4829V10.4948V10.5066V10.5184V10.5302V10.542V10.5538V10.5656V10.5774V10.5891V10.6009V10.6127V10.6244V10.6362V10.6479V10.6597V10.6714V10.6832V10.6949V10.7066V10.7183V10.73V10.7417V10.7534V10.7651V10.7768V10.7885V10.8002V10.8118V10.8235V10.8352V10.8468V10.8585V10.8701V10.8817V10.8934V10.905V10.9166V10.9282V10.9398V10.9514V10.963V10.9746V10.9862V10.9978V11.0094V11.0209V11.0325V11.0441V11.0556V11.0672V11.0787V11.0903V11.1018V11.1133V11.1249V11.1364V11.1479V11.1594V11.1709V11.1824V11.1939V11.2054V11.2169V11.2283V11.2398V11.2513V11.2627V11.2742V11.2856V11.2971V11.3085V11.32V11.3314V11.3428V11.3542V11.3657V11.3771V11.3885V11.3999V11.4113V11.4227V11.4341V11.4454V11.4568V11.4682V11.4796V11.4909V11.5023V11.5136V11.525V11.5363V11.5477V11.559V11.5703V11.5817V11.593V11.6043V11.6156V11.6269V11.6382V11.6495V11.6608V11.6721V11.6834V11.6946V11.7059V11.7172V11.7284V11.7397V11.751V11.7622V11.7735V11.7847V11.7959V11.8072V11.8184V11.8296V11.8408V11.852V11.8633V11.8745V11.8857V11.8969V11.9081V11.9192V11.9304V11.9416V11.9528V11.9639V11.9751V11.9863V11.9974V12.0086V12.0197V12.0309V12.042V12.0532V12.0643V12.0754V12.0865V12.0977V12.1088V12.1199V12.131V12.1421V12.1532V12.1643V12.1754V12.1865V12.1976V12.2086V12.2197V12.2308V12.2418V12.2529V12.264V12.275V12.2861V12.2971V12.3082V12.3192V12.3302V12.3413V12.3523V12.3633V12.3743V12.3853V12.3964V12.4074V12.4184V12.4294V12.4404V12.4514V12.4623V12.4733V12.4843V12.4953V12.5063V12.5172V12.5282V12.5392V12.5501V12.5611V12.572V12.583V12.5939V12.6049V12.6158V12.6267V12.6377V12.6486V12.6595V12.6704V12.6813V12.6923V12.7032V12.7141V12.725V12.7359V12.7468V12.7577V12.7686V12.7794V12.7903V12.8012V12.8121V12.8229V12.8338V12.8447V12.8555V12.8664V12.8773V12.8881V12.899V12.9098V12.9206V12.9315V12.9423V12.9531V12.964V12.9748V12.9856V12.9964V13.0073V13.0181V13.0289V13.0397V13.0505V13.0613V13.0721V13.0829V13.0937V13.1045V13.1153V13.126V13.1368V13.1476V13.1584V13.1691V13.1799V13.1907V13.2014V13.2122V13.2229V13.2337V13.2445V13.2552V13.2659V13.2767V13.2874V13.2982V13.3089V13.3196V13.3304V13.3411V13.3518V13.3625V13.3732V13.384V13.3947V13.4054V13.4161V13.4268V13.4375V13.4482V13.4589V13.4696V13.4803V13.4909V13.5016V13.5123V13.523V13.5337V13.5443V13.555V13.5657V13.5764V13.587V13.5977V13.6083V13.619V13.6297V13.6403V13.651V13.6616V13.6723V13.6829V13.6935V13.7042V13.7148V13.7255V13.7361V13.7467V13.7573V13.768V13.7786V13.7892V13.7998V13.8104V13.8211V13.8317V13.8423V13.8529V13.8635V13.8741V13.8847V13.8953V13.9059V13.9165V13.9271V13.9377V13.9483V13.9588V13.9694V13.98V13.9906V14.0012V14.0117V14.0223V14.0329V14.0435V14.054V14.0646V14.0752V14.0857V14.0963V14.1068V14.1174V14.128V14.1385V14.1491V14.1596V14.1702V14.1807V14.1913V14.2018V14.2123V14.2229V14.2334V14.244V14.2545V14.265V14.2756V14.2861V14.2966V14.3071V14.3177V14.3282V14.3387V14.3492V14.3597V14.3703V14.3808V14.3913V14.4018V14.4123V14.4228V14.4333V14.4438V14.4543V14.4648V14.4753V14.4858V14.4963V14.5068V14.5173V14.5278V14.5383V14.5488V14.5593V14.5698V14.5803V14.5908V14.6013V14.6117V14.6222V14.6327V14.6432V14.6537V14.6641V14.6746V14.6851V14.6956V14.706V14.7165V14.727V14.7375V14.7479V14.7584V14.7689V14.7793V14.7898V14.8003V14.8107V14.8212V14.8316V14.8421V14.8526V14.863V14.8735V14.8839V14.8944V14.9048V14.9153V14.9257V14.9362V14.9467V14.9571V14.9675V14.978V14.9884V14.9989V15.0093V15.0198V15.0302V15.0407V15.0511V15.0616V15.072V15.0824V15.0929V15.1033V15.1137V15.1242V15.1346V15.1451V15.1555V15.1659V15.1764V15.1868V15.1972V15.2077V15.2181V15.2285V15.239V15.2494V15.2598V15.2703V15.2807V15.2911V15.3015V15.312V15.3224V15.3328V15.3432V15.3537V15.3641V15.3745V15.3849V15.3954V15.4058V15.4162V15.4266V15.4371V15.4475V15.4579V15.4683V15.4788V15.4892V15.4996V15.51V15.5204V15.5309V15.5413V15.5517V15.5621V15.5726V15.583V15.5934V15.6038V15.6142V15.6247V15.6351V15.6455V15.6559V15.6663V15.6728V15.6793V15.6858V15.6923V15.6988V15.7053V15.7118V15.7183V15.7248V15.7313V15.7378V15.7443V15.7508V15.7573V15.7638V15.7703V15.7768V15.7833V15.7898V15.7963V15.8028V15.8093V15.8158V15.8223V15.8287V15.8352V15.8417V15.8482V15.8547V15.8612V15.8677V15.8742V15.8807V15.8872V15.8937V15.9002V15.9067V15.9132V15.9197V15.9262V15.9327V15.9392V15.9457V15.9522V15.9587V15.9652V15.9717V15.9782V15.9847V15.9912V15.9977V16.0042V16.0107V16.0172V16.0237V16.0302V16.0367V16.0432V16.0497V16.0562V16.0627V16.0692V16.0757V16.0822V16.0887V16.0952V16.1017V16.1082V16.1147V16.1212V16.1277V16.1342V16.1407V16.1472V16.1537V16.1603V16.1668V16.1733V16.1798V16.1863V16.1928V16.1993V16.2058V16.2123V16.2188V16.2253V16.2318V16.2383V16.2448V16.2513V16.2578V16.2644V16.2709V16.2774V16.2839V16.2904V16.2969V16.3034V16.3099V16.3164V16.3229V16.3295V16.336V16.3425V16.349V16.3555V16.362V16.3685V16.375V16.3816V16.3881V16.3946V16.4011V16.4076V16.4141V16.4207V16.4272V16.4337V16.4402V16.4467V16.4532V16.4598V16.4663V16.4728V16.4793V16.4858V16.4924V16.4989V16.5054V16.5119V16.5184V16.525V16.5315V16.538V16.5445V16.551V16.5576V16.5641V16.5706V16.5771V16.5837V16.5902V16.5967V16.6033V16.6098V16.6163V16.6228V16.6294V16.6359V16.6424V16.649V16.6555V16.662V16.6685V16.6751V16.6816V16.6881V16.6947V16.7012V16.7077V16.7143V16.7208V16.7273V16.7339V16.7404V16.747V16.7535V16.76V16.7666V16.7731V16.7797V16.7862V16.7927V16.7993V16.8058V16.8124V16.8189V16.8254V16.832V16.8385V16.8451V16.8516V16.8582V16.8647V16.8713V16.8778V16.8844V16.8909V16.8975V16.904V16.9106V16.9171V16.9237V16.9302V16.9368V16.9433V16.9499V16.9564V16.963V16.9695V16.9761V16.9827V16.9892V16.9958V17.0023V17.0089V17.0154V17.022V17.0286V17.0351V17.0417V17.0483V17.0548V17.0614V17.0679V17.0745V17.0811V17.0876V17.0942V17.1008V17.1074V17.1139V17.1205V17.1271V17.1336V17.1402V17.1468V17.1534V17.1599V17.1665V17.1731V17.1797V17.1862V17.1928V17.1994V17.206V17.2126V17.2191V17.2257V17.2323V17.2389V17.2455V17.252V17.2586V17.2652V17.2718V17.2784V17.285V17.2916V17.2982V17.3047V17.3113V17.3179V17.3245V17.3311V17.3377V17.3443V17.3509V17.3575V17.3641V17.3707V17.3773V17.3839V17.3905V17.3971V17.4037V17.4103V17.4169V17.4235V17.4301V17.4367V17.4433V17.4499V17.4565V17.4631V17.4698V17.4764V17.483V17.4896V17.4962V17.5028V17.5094V17.5161V17.5227V17.5293V17.5359V17.5425V17.5491V17.5558V17.5624V17.569V17.5756V17.5823V17.5889V17.5955V17.6021V17.6088V17.6154V17.622V17.6287V17.6353V17.6419V17.6486V17.6552V17.6618V17.6685V17.6751V17.6817V17.6884V17.695V17.7017V17.7083V17.7149V17.7216V17.7282V17.7349V17.7415V17.7482V17.7548V17.7615V17.7681V17.7748V17.7814V17.7881V17.7947V17.8014V17.808V17.8147V17.8214V17.828V17.8347V17.8413V17.848V17.8547V17.8613V17.868V17.8747V17.8813V17.888V17.8947V17.9013V17.908V17.9147V17.9214V17.928V17.9347V17.9414V17.9481V17.9547V17.9614V17.9681V17.9748V17.9815V17.9881V17.9948V18.0015V18.0082V18.0149V18.0216V18.0283V18.035V18.0417V18.0483V18.055V18.0617V18.0684V18.0751V18.0818V18.0885V18.0952V18.1019V18.1086V18.1153V18.1221V18.1288V18.1355V18.1422V18.1489V18.1556V18.1623V18.169V18.1757V18.1825V18.1892V18.1959V18.2026V18.2093V18.2161V18.2228V18.2295V18.2362V18.243V18.2497V18.2564V18.2631V18.2699V18.2766V18.2833V18.2901V18.2968V18.3035V18.3103V18.317V18.3238V18.3305V18.3372V18.344V18.3507V18.3575V18.3642V18.371V18.3777V18.3845V18.3912V18.398V18.4047V18.4115V18.4183V18.425V18.4318V18.4385V18.4453V18.4521V18.4588V18.4656V18.4724V18.4791V18.4859V18.4927V18.4995V18.5062V18.513V18.5198V18.5266V18.5333V18.5401V18.5469V18.5537V18.5605V18.5673V18.5741V18.5808V18.5876V18.5944V18.6012V18.608V18.6148V18.6216V18.6284V18.6352V18.642V18.6488V18.6556V18.6624V18.6692V18.676V18.6828V18.6897V18.6965V18.7033V18.7101V18.7169V18.7237V18.7305V18.7374V18.7442V18.751V18.7578V18.7647V18.7715V18.7783V18.7852V18.792V18.7988V18.8057V18.8125V18.8193V18.8262V18.833V18.8398V18.8467V18.8535V18.8604V18.8672V18.8741V18.8809V18.8878V18.8946V18.9015V18.9083V18.9152V18.9221V18.9289V18.9358V18.9427V18.9495V18.9564V18.9633V18.9701V18.977V18.9839V18.9907V18.9976V19.0045V19.0114V19.0183V19.0251V19.032V19.0389V19.0458V19.0527V19.0596C15.859 19.4787 15.8585 19.6564 15.8459 19.8017C15.6992 21.4962 14.3555 22.8399 12.661 22.9866C12.5157 22.9992 12.338 22.9997 11.919 22.9997H5.1275C4.70844 22.9997 4.53079 22.9992 4.3855 22.9866C2.69101 22.8399 1.34731 21.4962 1.20055 19.8017C1.18797 19.6564 1.1875 19.4787 1.1875 19.0597V15.6663V10.053C1.1875 9.83825 1.18797 9.76274 1.19309 9.70358C1.25599 8.97737 1.83186 8.4015 2.55807 8.3386C2.61724 8.33348 2.69274 8.33301 2.9075 8.33301Z" stroke="#272222"/>
<path d="M2.9075 8.33301H14.139C14.3537 8.33301 14.4292 8.33348 14.4884 8.3386C15.2146 8.4015 15.7905 8.97737 15.8534 9.70358C15.8585 9.76274 15.859 9.8383 15.859 10.0532V10.0652V10.0773V10.0893V10.1013V10.1134V10.1254V10.1374V10.1494V10.1614V10.1734V10.1854V10.1973V10.2093V10.2213V10.2332V10.2452V10.2571V10.2691V10.281V10.2929V10.3048V10.3168V10.3287V10.3406V10.3525V10.3644V10.3762V10.3881V10.4V10.4119V10.4237V10.4356V10.4474V10.4593V10.4711V10.4829V10.4948V10.5066V10.5184V10.5302V10.542V10.5538V10.5656V10.5774V10.5891V10.6009V10.6127V10.6244V10.6362V10.6479V10.6597V10.6714V10.6832V10.6949V10.7066V10.7183V10.73V10.7417V10.7534V10.7651V10.7768V10.7885V10.8002V10.8118V10.8235V10.8352V10.8468V10.8585V10.8701V10.8817V10.8934V10.905V10.9166V10.9282V10.9398V10.9514V10.963V10.9746V10.9862V10.9978V11.0094V11.0209V11.0325V11.0441V11.0556V11.0672V11.0787V11.0903V11.1018V11.1133V11.1249V11.1364V11.1479V11.1594V11.1709V11.1824V11.1939V11.2054V11.2169V11.2283V11.2398V11.2513V11.2627V11.2742V11.2856V11.2971V11.3085V11.32V11.3314V11.3428V11.3542V11.3657V11.3771V11.3885V11.3999V11.4113V11.4227V11.4341V11.4454V11.4568V11.4682V11.4796V11.4909V11.5023V11.5136V11.525V11.5363V11.5477V11.559V11.5703V11.5817V11.593V11.6043V11.6156V11.6269V11.6382V11.6495V11.6608V11.6721V11.6834V11.6946V11.7059V11.7172V11.7284V11.7397V11.751V11.7622V11.7735V11.7847V11.7959V11.8072V11.8184V11.8296V11.8408V11.852V11.8633V11.8745V11.8857V11.8969V11.9081V11.9192V11.9304V11.9416V11.9528V11.9639V11.9751V11.9863V11.9974V12.0086V12.0197V12.0309V12.042V12.0532V12.0643V12.0754V12.0865V12.0977V12.1088V12.1199V12.131V12.1421V12.1532V12.1643V12.1754V12.1865V12.1976V12.2086V12.2197V12.2308V12.2418V12.2529V12.264V12.275V12.2861V12.2971V12.3082V12.3192V12.3302V12.3413V12.3523V12.3633V12.3743V12.3853V12.3964V12.4074V12.4184V12.4294V12.4404V12.4514V12.4623V12.4733V12.4843V12.4953V12.5063V12.5172V12.5282V12.5392V12.5501V12.5611V12.572V12.583V12.5939V12.6049V12.6158V12.6267V12.6377V12.6486V12.6595V12.6704V12.6813V12.6923V12.7032V12.7141V12.725V12.7359V12.7468V12.7577V12.7686V12.7794V12.7903V12.8012V12.8121V12.8229V12.8338V12.8447V12.8555V12.8664V12.8773V12.8881V12.899V12.9098V12.9206V12.9315V12.9423V12.9531V12.964V12.9748V12.9856V12.9964V13.0073V13.0181V13.0289V13.0397V13.0505V13.0613V13.0721V13.0829V13.0937V13.1045V13.1153V13.126V13.1368V13.1476V13.1584V13.1691V13.1799V13.1907V13.2014V13.2122V13.2229V13.2337V13.2445V13.2552V13.2659V13.2767V13.2874V13.2982V13.3089V13.3196V13.3304V13.3411V13.3518V13.3625V13.3732V13.384V13.3947V13.4054V13.4161V13.4268V13.4375V13.4482V13.4589V13.4696V13.4803V13.4909V13.5016V13.5123V13.523V13.5337V13.5443V13.555V13.5657V13.5764V13.587V13.5977V13.6083V13.619V13.6297V13.6403V13.651V13.6616V13.6723V13.6829V13.6935V13.7042V13.7148V13.7255V13.7361V13.7467V13.7573V13.768V13.7786V13.7892V13.7998V13.8104V13.8211V13.8317V13.8423V13.8529V13.8635V13.8741V13.8847V13.8953V13.9059V13.9165V13.9271V13.9377V13.9483V13.9588V13.9694V13.98V13.9906V14.0012V14.0117V14.0223V14.0329V14.0435V14.054V14.0646V14.0752V14.0857V14.0963V14.1068V14.1174V14.128V14.1385V14.1491V14.1596V14.1702V14.1807V14.1913V14.2018V14.2123V14.2229V14.2334V14.244V14.2545V14.265V14.2756V14.2861V14.2966V14.3071V14.3177V14.3282V14.3387V14.3492V14.3597V14.3703V14.3808V14.3913V14.4018V14.4123V14.4228V14.4333V14.4438V14.4543V14.4648V14.4753V14.4858V14.4963V14.5068V14.5173V14.5278V14.5383V14.5488V14.5593V14.5698V14.5803V14.5908V14.6013V14.6117V14.6222V14.6327V14.6432V14.6537V14.6641V14.6746V14.6851V14.6956V14.706V14.7165V14.727V14.7375V14.7479V14.7584V14.7689V14.7793V14.7898V14.8003V14.8107V14.8212V14.8316V14.8421V14.8526V14.863V14.8735V14.8839V14.8944V14.9048V14.9153V14.9257V14.9362V14.9467V14.9571V14.9675V14.978V14.9884V14.9989V15.0093V15.0198V15.0302V15.0407V15.0511V15.0616V15.072V15.0824V15.0929V15.1033V15.1137V15.1242V15.1346V15.1451V15.1555V15.1659V15.1764V15.1868V15.1972V15.2077V15.2181V15.2285V15.239V15.2494V15.2598V15.2703V15.2807V15.2911V15.3015V15.312V15.3224V15.3328V15.3432V15.3537V15.3641V15.3745V15.3849V15.3954V15.4058V15.4162V15.4266V15.4371V15.4475V15.4579V15.4683V15.4788V15.4892V15.4996V15.51V15.5204V15.5309V15.5413V15.5517V15.5621V15.5726V15.583V15.5934V15.6038V15.6142V15.6247V15.6351V15.6455V15.6559V15.6663V15.6728V15.6793V15.6858V15.6923V15.6988V15.7053V15.7118V15.7183V15.7248V15.7313V15.7378V15.7443V15.7508V15.7573V15.7638V15.7703V15.7768V15.7833V15.7898V15.7963V15.8028V15.8093V15.8158V15.8223V15.8287V15.8352V15.8417V15.8482V15.8547V15.8612V15.8677V15.8742V15.8807V15.8872V15.8937V15.9002V15.9067V15.9132V15.9197V15.9262V15.9327V15.9392V15.9457V15.9522V15.9587V15.9652V15.9717V15.9782V15.9847V15.9912V15.9977V16.0042V16.0107V16.0172V16.0237V16.0302V16.0367V16.0432V16.0497V16.0562V16.0627V16.0692V16.0757V16.0822V16.0887V16.0952V16.1017V16.1082V16.1147V16.1212V16.1277V16.1342V16.1407V16.1472V16.1537V16.1603V16.1668V16.1733V16.1798V16.1863V16.1928V16.1993V16.2058V16.2123V16.2188V16.2253V16.2318V16.2383V16.2448V16.2513V16.2578V16.2644V16.2709V16.2774V16.2839V16.2904V16.2969V16.3034V16.3099V16.3164V16.3229V16.3295V16.336V16.3425V16.349V16.3555V16.362V16.3685V16.375V16.3816V16.3881V16.3946V16.4011V16.4076V16.4141V16.4207V16.4272V16.4337V16.4402V16.4467V16.4532V16.4598V16.4663V16.4728V16.4793V16.4858V16.4924V16.4989V16.5054V16.5119V16.5184V16.525V16.5315V16.538V16.5445V16.551V16.5576V16.5641V16.5706V16.5771V16.5837V16.5902V16.5967V16.6033V16.6098V16.6163V16.6228V16.6294V16.6359V16.6424V16.649V16.6555V16.662V16.6685V16.6751V16.6816V16.6881V16.6947V16.7012V16.7077V16.7143V16.7208V16.7273V16.7339V16.7404V16.747V16.7535V16.76V16.7666V16.7731V16.7797V16.7862V16.7927V16.7993V16.8058V16.8124V16.8189V16.8254V16.832V16.8385V16.8451V16.8516V16.8582V16.8647V16.8713V16.8778V16.8844V16.8909V16.8975V16.904V16.9106V16.9171V16.9237V16.9302V16.9368V16.9433V16.9499V16.9564V16.963V16.9695V16.9761V16.9827V16.9892V16.9958V17.0023V17.0089V17.0154V17.022V17.0286V17.0351V17.0417V17.0483V17.0548V17.0614V17.0679V17.0745V17.0811V17.0876V17.0942V17.1008V17.1074V17.1139V17.1205V17.1271V17.1336V17.1402V17.1468V17.1534V17.1599V17.1665V17.1731V17.1797V17.1862V17.1928V17.1994V17.206V17.2126V17.2191V17.2257V17.2323V17.2389V17.2455V17.252V17.2586V17.2652V17.2718V17.2784V17.285V17.2916V17.2982V17.3047V17.3113V17.3179V17.3245V17.3311V17.3377V17.3443V17.3509V17.3575V17.3641V17.3707V17.3773V17.3839V17.3905V17.3971V17.4037V17.4103V17.4169V17.4235V17.4301V17.4367V17.4433V17.4499V17.4565V17.4631V17.4698V17.4764V17.483V17.4896V17.4962V17.5028V17.5094V17.5161V17.5227V17.5293V17.5359V17.5425V17.5491V17.5558V17.5624V17.569V17.5756V17.5823V17.5889V17.5955V17.6021V17.6088V17.6154V17.622V17.6287V17.6353V17.6419V17.6486V17.6552V17.6618V17.6685V17.6751V17.6817V17.6884V17.695V17.7017V17.7083V17.7149V17.7216V17.7282V17.7349V17.7415V17.7482V17.7548V17.7615V17.7681V17.7748V17.7814V17.7881V17.7947V17.8014V17.808V17.8147V17.8214V17.828V17.8347V17.8413V17.848V17.8547V17.8613V17.868V17.8747V17.8813V17.888V17.8947V17.9013V17.908V17.9147V17.9214V17.928V17.9347V17.9414V17.9481V17.9547V17.9614V17.9681V17.9748V17.9815V17.9881V17.9948V18.0015V18.0082V18.0149V18.0216V18.0283V18.035V18.0417V18.0483V18.055V18.0617V18.0684V18.0751V18.0818V18.0885V18.0952V18.1019V18.1086V18.1153V18.1221V18.1288V18.1355V18.1422V18.1489V18.1556V18.1623V18.169V18.1757V18.1825V18.1892V18.1959V18.2026V18.2093V18.2161V18.2228V18.2295V18.2362V18.243V18.2497V18.2564V18.2631V18.2699V18.2766V18.2833V18.2901V18.2968V18.3035V18.3103V18.317V18.3238V18.3305V18.3372V18.344V18.3507V18.3575V18.3642V18.371V18.3777V18.3845V18.3912V18.398V18.4047V18.4115V18.4183V18.425V18.4318V18.4385V18.4453V18.4521V18.4588V18.4656V18.4724V18.4791V18.4859V18.4927V18.4995V18.5062V18.513V18.5198V18.5266V18.5333V18.5401V18.5469V18.5537V18.5605V18.5673V18.5741V18.5808V18.5876V18.5944V18.6012V18.608V18.6148V18.6216V18.6284V18.6352V18.642V18.6488V18.6556V18.6624V18.6692V18.676V18.6828V18.6897V18.6965V18.7033V18.7101V18.7169V18.7237V18.7305V18.7374V18.7442V18.751V18.7578V18.7647V18.7715V18.7783V18.7852V18.792V18.7988V18.8057V18.8125V18.8193V18.8262V18.833V18.8398V18.8467V18.8535V18.8604V18.8672V18.8741V18.8809V18.8878V18.8946V18.9015V18.9083V18.9152V18.9221V18.9289V18.9358V18.9427V18.9495V18.9564V18.9633V18.9701V18.977V18.9839V18.9907V18.9976V19.0045V19.0114V19.0183V19.0251V19.032V19.0389V19.0458V19.0527V19.0596C15.859 19.4787 15.8585 19.6564 15.8459 19.8017C15.6992 21.4962 14.3555 22.8399 12.661 22.9866C12.5157 22.9992 12.338 22.9997 11.919 22.9997H5.1275C4.70844 22.9997 4.53079 22.9992 4.3855 22.9866C2.69101 22.8399 1.34731 21.4962 1.20055 19.8017C1.18797 19.6564 1.1875 19.4787 1.1875 19.0597V15.6663V10.053C1.1875 9.83825 1.18797 9.76274 1.19309 9.70358C1.25599 8.97737 1.83186 8.4015 2.55807 8.3386C2.61724 8.33348 2.69274 8.33301 2.9075 8.33301Z" stroke="black"/>
<path d="M12.8999 8.7037L12.874 5.45344C12.861 3.82172 11.9337 2.34197 10.4731 1.62222V1.62222C8.77303 0.784476 6.71671 1.15118 5.39576 2.52766L5.33917 2.58663C4.53605 3.42351 4.08718 4.53668 4.08718 5.69148L4.08718 8.7037" stroke="black" stroke-width="1.5"/>
<path d="M12.8999 8.7037L12.874 5.45344C12.861 3.82172 11.9337 2.34197 10.4731 1.62222V1.62222C8.77303 0.784476 6.71671 1.15118 5.39576 2.52766L5.33917 2.58663C4.53605 3.42351 4.08718 4.53668 4.08718 5.69148L4.08718 8.7037" stroke="black" stroke-width="1.5"/>
</svg>
